# xmcd
#
# Track frame offsets:
# 150
# 16446
# 32389
# 52240
# 76270
# 88562
# 98485
# 115123
# 121881
# 138277
# 143118
# 152351
# 160970
# 174065
# 188937
# 206923
# 228725
#
# Disc length: 3053 seconds
#
#
# Revision: 0
# Processed by: cddbd v1.5.1PL0 Copyright (c) Steve Scherf et al.
# Submitted via: FreeRIP 2.90 
#
DISCID=d30beb11
DTITLE=Rudi Jäckel and Herbert Markmann - Abschiedskonzert Orther Getreide Duo
DYEAR=2005
DGENRE=Ballad
TTITLE0=Heinweh nach St. Pauli
TTITLE1=Das Holsteinlied
TTITLE2=Komm auf das Traumboot...
TTITLE3=Wir lagen vor Madagaskar
TTITLE4=Papagai
TTITLE5=Seemann Franke
TTITLE6=Der dritte Mann
TTITLE7=Hüa Ho
TTITLE8=La Paloma
TTITLE9=Nimm mich mit Kapitän
TTITLE10=Oh sole mio
TTITLE11=Schön ist die Liebe...
TTITLE12=Du schwarzer Zigeuner
TTITLE13=Seemannsmedley
TTITLE14=Some broken hearts
TTITLE15=Zwei Gitarren am Meer
TTITLE16=Gost
EXTD=
EXTT0=
EXTT1=
EXTT2=
EXTT3=
EXTT4=
EXTT5=
EXTT6=
EXTT7=
EXTT8=
EXTT9=
EXTT10=
EXTT11=
EXTT12=
EXTT13=
EXTT14=
EXTT15=
EXTT16=
PLAYORDER=
